<svg t="1582723522976" class="icon" viewBox="0 0 1024 1024" version="1.1" xmlns="http://www.w3.org/2000/svg" p-id="1775" width="200" height="200"><path d="M926.72 380.3136c-0.4096-72.8576-61.44-132.5056-131.0208-131.1232-47.0016 0.9216-91.2896 0-144.64 0 22.784-23.9616 44.1856-44.6464 63.8464-64.6144 12.2368-12.4416 10.8032-24.4736-0.3584-35.84s-22.4256-18.3808-36.7616-2.9184-96.8704 103.2704-96.8704 103.2704H470.0672s-75.2128-73.0624-103.7824-102.4c-13.824-14.1824-25.6-16.9472-40.3456-1.6896s-11.9808 27.1872 2.1504 41.2672c18.9952 18.8928 36.3008 39.5264 57.0368 62.4128h-158.72a85.504 85.504 0 0 0-39.2192 8.96c-49.5104 24.4736-73.5744 65.4848-74.1888 118.8352C111.7696 486.4 112.64 596.5824 112.64 706.56c0 98.0992 47.4624 148.48 145.1008 153.2416 8.6016 0.4608 20.48 0 20.48 0s4.5056 43.6736 43.7248 43.7248c36.352 0 43.4688-44.3904 43.4688-44.3904l318.5664 1.6896s8.2944 43.7248 40.96 43.7248c51.2 0 46.8992-43.7248 46.8992-43.7248s67.072 6.0928 101.5296-25.6c32.9728-30.3616 51.5584-66.56 52.2752-109.312 2.304-115.2 1.536-230.4 1.0752-345.6z m-84.8896 358.4c0 30.72-8.4992 38.2976-40.448 38.2976H245.9648c-31.488 0-40.704-9.1648-40.96-40.96V375.2448c0-29.7984 9.8816-40.0896 39.6288-40.1408q278.9376-0.3072 558.08 0c30.3104 0 38.8608 8.0384 38.9632 37.7344q0.4608 183.1424-0.0512 366.1312z" fill="#747474" p-id="1776"></path><path d="M605.7984 634.88s-29.1328 27.8528-49.2544 15.36c-15.36-9.216-22.784-24.7296-31.5392-41.5744l-0.3072 0.512-0.3072-0.512c-8.8064 16.8448-16.4352 32.3584-31.5392 41.5744-20.1216 12.288-49.2544-15.36-49.2544-15.36l-24.1664 16.6912s-0.5632 0.4096 3.0208 5.12c23.0912 30.3616 63.1296 42.9568 93.0304 22.784a26.0608 26.0608 0 0 1 9.2672-4.5568 26.0608 26.0608 0 0 1 9.2672 4.5568c29.9008 20.224 70.2464 6.656 93.0304-22.784 3.6352-4.7104 3.0208-5.12 3.0208-5.12zM264.68352 473.6512l170.68544-32.06656 12.41088 66.06848-170.68544 32.06656zM780.30848 539.648l-170.68544-32.06656 12.41088-66.06848 170.68544 32.06656z" fill="#747474" p-id="1777"></path></svg>